<?xml version="1.0" encoding="UTF-8" standalone="no"?>
<svg
   width="28"
   height="28"
   fill="none"
   version="1.1"
   id="svg24"
   xmlns="http://www.w3.org/2000/svg"
   xmlns:svg="http://www.w3.org/2000/svg">
  <path
     fill-rule="evenodd"
     clip-rule="evenodd"
     d="M 28,8.72 C 28,8.388 28,8.056 27.998,7.723 27.996,7.443 27.993,7.163 27.986,6.883 27.969,6.273 27.933,5.658 27.825,5.055 A 6.17,6.17 0 0 0 27.252,3.317 5.843,5.843 0 0 0 24.695,0.762 6.174,6.174 0 0 0 22.955,0.189 C 22.353,0.081 21.737,0.045 21.127,0.029 20.847,0.021 20.567,0.017 20.287,0.016 19.954,0.014 19.622,0.014 19.289,0.014 L 15.427,0 H 12.54 L 8.745,0.014 c -0.333,0 -0.666,0 -1,0.002 C 7.465,0.017 7.185,0.021 6.904,0.028 6.292,0.045 5.675,0.081 5.07,0.19 4.457,0.3 3.886,0.48 3.33,0.762 A 5.858,5.858 0 0 0 0.767,3.317 6.159,6.159 0 0 0 0.193,5.055 C 0.084,5.658 0.048,6.273 0.032,6.883 0.024,7.163 0.021,7.443 0.019,7.723 0.017,8.056 0,8.47 0,8.801 v 6.66 l 0.017,3.82 c 0,0.333 0,0.666 0.002,1 0.002,0.28 0.005,0.56 0.013,0.84 0.016,0.611 0.052,1.227 0.16,1.831 0.111,0.613 0.291,1.183 0.575,1.74 a 5.853,5.853 0 0 0 2.561,2.559 6.188,6.188 0 0 0 1.743,0.573 c 0.605,0.109 1.221,0.145 1.833,0.161 0.28,0.008 0.56,0.011 0.842,0.013 C 8.079,28 8.412,28 8.746,28 h 10.543 c 0.332,0 0.665,0 0.998,-0.002 0.28,-0.002 0.56,-0.005 0.84,-0.013 0.61,-0.016 1.226,-0.052 1.83,-0.16 a 6.165,6.165 0 0 0 1.738,-0.574 5.845,5.845 0 0 0 2.557,-2.559 6.183,6.183 0 0 0 0.573,-1.74 c 0.108,-0.604 0.144,-1.22 0.16,-1.83 0.008,-0.281 0.011,-0.561 0.013,-0.842 C 28,19.947 28,19.614 28,19.282 V 12.539 8.72"
     fill="url(#paint0_linear_454_985)"
     id="path1"
     style="fill:url(#paint0_linear_454_985)" />
  <rect
     opacity="0.48"
     x="2"
     y="14"
     width="24"
     height="1"
     rx="0.5"
     fill="#70c8fa"
     id="rect1" />
  <rect
     opacity="0.48"
     x="2"
     y="10"
     width="24"
     height="1"
     rx="0.5"
     fill="#70c8fa"
     id="rect2" />
  <rect
     opacity="0.48"
     x="2"
     y="6"
     width="24"
     height="1"
     rx="0.5"
     fill="#70c8fa"
     id="rect3" />
  <path
     fill-rule="evenodd"
     clip-rule="evenodd"
     d="M 8.75,3 A 0.75,0.75 0 0 0 8,3.75 v 13.5 C 8,17.664 8.336,18 8.75,18 h 2.5 A 0.75,0.75 0 0 0 12,17.25 V 3.75 A 0.75,0.75 0 0 0 11.25,3 Z m 13,2 A 0.75,0.75 0 0 0 21,5.75 v 12.5 c 0,0.414 0.336,0.75 0.75,0.75 h 2.5 A 0.75,0.75 0 0 0 25,18.25 V 5.75 A 0.75,0.75 0 0 0 24.25,5 Z"
     fill="url(#paint1_linear_454_985)"
     id="path3"
     style="fill:url(#paint1_linear_454_985)" />
  <path
     fill-rule="evenodd"
     clip-rule="evenodd"
     d="M 16.75,9 A 0.75,0.75 0 0 0 16,9.75 v 8.5 c 0,0.414 0.336,0.75 0.75,0.75 h 2.5 A 0.75,0.75 0 0 0 20,18.25 V 9.75 A 0.75,0.75 0 0 0 19.25,9 Z m -13,3 A 0.75,0.75 0 0 0 3,12.75 v 4.5 C 3,17.664 3.336,18 3.75,18 h 2.5 A 0.75,0.75 0 0 0 7,17.25 v -4.5 A 0.75,0.75 0 0 0 6.25,12 Z"
     fill="url(#paint2_linear_454_985)"
     id="path4"
     style="fill:url(#paint2_linear_454_985)" />
  <path
     fill="url(#paint3_linear_454_985)"
     d="m 3,15 h 22 v 5 H 3 Z"
     id="path5"
     style="fill:url(#paint3_linear_454_985)" />
  <path
     opacity="0.5"
     fill-rule="evenodd"
     clip-rule="evenodd"
     d="M 7.492,24.063 C 6.154,24.063 5.721,23.796 5.62,23.715 4.723,22.988 4.43,20.859 4.43,20.207 4.43,19.88 4.458,19.412 4.7,19.124 4.745,19.07 4.96,18.884 5.834,18.747 a 11.333,11.333 0 0 1 1.658,-0.126 c 2.582,0 3.361,0.689 3.491,0.827 0.278,0.295 0.42,0.744 0.42,1.333 0,0.876 -0.282,1.564 -0.517,1.987 -0.288,0.517 -0.634,0.859 -0.85,0.968 -0.359,0.183 -1.476,0.326 -2.544,0.326"
     fill="url(#paint4_linear_454_985)"
     id="path6"
     style="fill:url(#paint4_linear_454_985)" />
  <path
     opacity="0.5"
     fill-rule="evenodd"
     clip-rule="evenodd"
     d="m 20.508,24.063 c 1.338,0 1.771,-0.267 1.872,-0.348 0.897,-0.727 1.19,-2.856 1.19,-3.508 0,-0.327 -0.028,-0.795 -0.27,-1.083 -0.045,-0.054 -0.26,-0.24 -1.134,-0.377 a 11.332,11.332 0 0 0 -1.658,-0.126 c -2.582,0 -3.361,0.689 -3.491,0.827 -0.278,0.295 -0.42,0.744 -0.42,1.333 0,0.876 0.281,1.564 0.517,1.987 0.288,0.517 0.634,0.859 0.85,0.968 0.359,0.183 1.476,0.326 2.544,0.326"
     fill="url(#paint5_linear_454_985)"
     id="path7"
     style="fill:url(#paint5_linear_454_985)" />
  <path
     fill-rule="evenodd"
     clip-rule="evenodd"
     d="m 23.352,20.207 c -0.002,0.538 -0.266,2.655 -1.11,3.338 -0.038,0.03 -0.435,0.299 -1.598,0.299 -0.683,0 -1.53,-0.035 -1.998,-0.123 -0.536,-0.1 -0.728,-0.206 -1,-0.534 -0.39,-0.466 -0.83,-1.334 -0.83,-2.406 0,-0.532 0.121,-0.93 0.36,-1.183 0.05,-0.054 0.256,-0.244 0.772,-0.421 0.65,-0.224 1.51,-0.337 2.56,-0.337 0.523,0 1.124,0.046 1.61,0.12 1.35,0.208 1.236,0.495 1.234,1.247 m -12.998,2.98 c -0.272,0.328 -0.464,0.434 -1,0.534 -0.468,0.088 -1.315,0.123 -1.999,0.123 -1.162,0 -1.56,-0.269 -1.597,-0.3 C 4.914,22.862 4.65,20.745 4.648,20.207 4.646,19.455 4.532,19.168 5.883,18.96 a 11.27,11.27 0 0 1 1.61,-0.12 c 1.049,0 1.91,0.113 2.559,0.337 0.516,0.177 0.721,0.367 0.772,0.42 0.239,0.254 0.36,0.652 0.36,1.184 0,1.072 -0.44,1.94 -0.83,2.407 m 15.771,-5.03 a 0.42,0.42 0 0 0 -0.324,-0.35 C 25.321,17.7 24.097,17.5 21.656,17.5 c -4.758,0 -5.168,0.608 -7.656,0.608 -2.488,0 -2.898,-0.608 -7.656,-0.608 -2.441,0 -3.664,0.2 -4.145,0.307 a 0.419,0.419 0 0 0 -0.324,0.35 c -0.01,0.064 -0.016,0.138 -0.016,0.218 0,0.241 0.005,0.378 0.082,0.52 0.121,0.22 1.149,0.656 1.313,1.53 0.164,0.876 0.547,3.118 1.367,3.938 0.547,0.547 1.777,0.657 3.035,0.657 1.538,0 2.536,-0.212 2.926,-0.4 0.3,-0.143 1.398,-0.665 1.887,-2.854 0.369,-1.655 0.341,-1.79 0.712,-2.058 0.262,-0.188 0.655,-0.24 0.819,-0.24 0.164,0 0.557,0.052 0.819,0.24 0.37,0.267 0.343,0.403 0.712,2.058 0.489,2.19 1.586,2.71 1.887,2.855 0.39,0.187 1.388,0.399 2.926,0.399 1.258,0 2.488,-0.11 3.035,-0.657 0.82,-0.82 1.203,-3.062 1.367,-3.937 0.164,-0.875 1.192,-1.311 1.313,-1.531 0.077,-0.142 0.082,-0.279 0.082,-0.52 0,-0.08 -0.007,-0.154 -0.016,-0.218"
     fill="url(#paint6_linear_454_985)"
     id="path8"
     style="fill:url(#paint6_linear_454_985)" />
  <path
     fill-rule="evenodd"
     clip-rule="evenodd"
     d="m 15.81,18.748 c 0,0.457 -0.338,1.069 -0.613,1.49 a 0.081,0.081 0 0 1 -0.111,0.025 C 14.811,20.088 14.445,20.07 14,20.07 c -0.439,0 -0.84,0.036 -1.1,0.229 a 0.082,0.082 0 0 1 -0.121,-0.027 c -0.25,-0.473 -0.355,-1.055 -0.355,-1.055 v -0.469 h 3.387 z"
     fill="#cc7323"
     id="path9" />
  <path
     fill-rule="evenodd"
     clip-rule="evenodd"
     d="m 16.213,18.58 c 0,0.148 -0.188,0.374 -0.474,0.585 a 2.862,2.862 0 0 1 -0.23,0.153 3.76,3.76 0 0 1 -0.743,0.36 c -0.257,0.086 -0.55,0.143 -0.9,0.143 -0.294,0 -0.542,-0.021 -0.75,-0.058 a 1.97,1.97 0 0 1 -0.609,-0.198 c -0.286,-0.158 -0.385,-0.359 -0.385,-0.515 0,-0.254 0.047,-0.626 0.242,-1.037 l 0.012,-0.025 a 0.082,0.082 0 0 1 0.084,-0.046 c 0.452,0.055 0.934,0.09 1.54,0.09 0.789,0 1.368,-0.06 1.945,-0.144 a 0.082,0.082 0 0 1 0.085,0.044 l 0.012,0.024 c 0.076,0.161 0.171,0.405 0.171,0.624"
     fill="#e4aa65"
     id="path10" />
  <defs
     id="defs24">
    <linearGradient
       id="paint0_linear_454_985"
       x2="0"
       y2="28"
       gradientUnits="userSpaceOnUse">
      <stop
         stop-color="#2196F3"
         id="stop11" />
      <stop
         offset="1"
         stop-color="#1478EE"
         id="stop12" />
    </linearGradient>
    <linearGradient
       id="paint1_linear_454_985"
       x1="8"
       y1="3"
       x2="8"
       y2="19"
       gradientUnits="userSpaceOnUse">
      <stop
         stop-color="#89D8FD"
         id="stop13" />
      <stop
         offset="1"
         stop-color="#70C8FA"
         id="stop14" />
    </linearGradient>
    <linearGradient
       id="paint2_linear_454_985"
       x1="3"
       y1="9"
       x2="3"
       y2="19"
       gradientUnits="userSpaceOnUse">
      <stop
         stop-color="#C6FB85"
         id="stop15" />
      <stop
         offset="1"
         stop-color="#B3F364"
         id="stop16" />
    </linearGradient>
    <linearGradient
       id="paint3_linear_454_985"
       x1="14"
       y1="15"
       x2="14"
       y2="17.5"
       gradientUnits="userSpaceOnUse">
      <stop
         stop-color="#1A86F1"
         stop-opacity="0"
         id="stop17" />
      <stop
         offset="1"
         stop-color="#1881F0"
         id="stop18" />
    </linearGradient>
    <linearGradient
       id="paint4_linear_454_985"
       x1="4.4299998"
       y1="18.621"
       x2="4.4299998"
       y2="24.063"
       gradientUnits="userSpaceOnUse">
      <stop
         stop-color="#70C8FA"
         id="stop19" />
      <stop
         offset="1"
         stop-color="#70C8FA"
         stop-opacity=".01"
         id="stop20" />
    </linearGradient>
    <linearGradient
       id="paint5_linear_454_985"
       x1="16.598"
       y1="18.621"
       x2="16.598"
       y2="24.063"
       gradientUnits="userSpaceOnUse">
      <stop
         stop-color="#70C8FA"
         id="stop21" />
      <stop
         offset="1"
         stop-color="#70C8FA"
         stop-opacity=".01"
         id="stop22" />
    </linearGradient>
    <linearGradient
       id="paint6_linear_454_985"
       x1="1.859"
       y1="17.5"
       x2="1.859"
       y2="25.02"
       gradientUnits="userSpaceOnUse">
      <stop
         stop-color="#1E1E1E"
         id="stop23" />
      <stop
         offset="1"
         id="stop24" />
    </linearGradient>
  </defs>
</svg>
